<?xml version="1.0" encoding="UTF-8"?>
<svg id="Layer_1" data-name="Layer 1" xmlns="http://www.w3.org/2000/svg" xmlns:xlink="http://www.w3.org/1999/xlink" viewBox="0 0 6 431">
  <defs>
    <style>
      .cls-1, .cls-2 {
        fill: none;
      }

      .cls-3 {
        fill: #fc7b6d;
      }

      .cls-4 {
        fill: #fff;
      }

      .cls-5 {
        fill: #554b6a;
      }

      .cls-2 {
        clip-path: url(#clippath);
      }
    </style>
    <clipPath id="clippath">
      <rect class="cls-1" width="6" height="431"/>
    </clipPath>
  </defs>
  <g class="cls-2">
    <g>
      <rect class="cls-3" x="-57" y="-78" width="714" height="547"/>
      <path class="cls-5" d="m505,415c0-6-1-13-2-19-2-1-5-19-9-28-6-12-14-21-26-27-15-7-29-15-43-22-11-6-21-13-3-22-9-9-16-18-19-3-2-7-3-14-2-22,0-7,3-14,6-21,5-9,12-28,16-38,5-15,6-31,6-47,0-12,0-25-3-37-3-13-13-33-19-39-6-6-12-12-18-18-13-1-27-17-43-21-11-3-22-6-33-6,0,0-1,0-2,0-4,0-8,0-12,0,0,0,0,0-1,0-5,0-1,1-15,2-1,2-19,6-28,11-19,11-32,27-41,47-6,12-9,25-1,38,0,0,0,0,0,0,0,6,0,13,0,19,0,0,0,0,0,0,0,3,0,6,0,9v2c0,0,0,1,0,2-2,7-6,12-9,18h0s-1,3-1,3c-4,9-9,19-13,28-1,3-1,6,1,8,1,1,2,2,3,3,3,2,7,3,1,4,0,0,2,1,2,2,0,3,1,6,0,9,0,2,0,5,0,7,0,1,2,2,3,3,0,0,0,1,0,2-1,2-1,4,0,6,0,2,1,4,2,6,2,4,2,8,0,12-2,4-3,7-2,12,2,6,5,11,12,13,5,1,9,0,13,0,8-1,16-2,25-1,0,0,0,0,0,0,8,0,15,2,22,5,0,0,0,0,1,0,0,0,0,0,0,0,0,0,0,0,0,0,0,0,0,0,0,0,0,0,0,0,0,0h0s0,0,1,1c0,1,0,2,1,3,0,3,0,6,0,9,0,0,0,1,0,2,0,2,0,3-2,4-2,2-5,3-7,4-8,4-16,6-25,8-16,4-32,9-48,13-1,3-2,6-29,11-7,4-11,9-14,16-5,12-7,25-8,38,0,0,0,1,0,2,0,4,0,8,0,13,0,0,0,0,0,0,0,6,1,12,3,18,1,3,3,6,4,8,2,2,4,4,7,4,0,0,0,0,0,0,7,0,362-2,368-2,0,0,0,0,0,0,0,0,2,0,2-2,1-2,3-5,3-7,1-6,2-12,0-19Z"/>
      <path class="cls-4" d="m176,144c2,0,4,0,6,0,16,0,29-6,4-16,0,0,0-1,0-2-3-5-5-1-6-15,0-7,0-14,4-21,6-1,14-17,24-23,2-1,4-2,3-6-1-5,2-9,7-1,3,0,6-2,1-2,5,0,1,0,15,0,7,0,14,3,19,8,0,0,2,0,3,0,4,0,8,0,12,0,3,0,5,2,7,4,3,4,5,8,7,12,1,4,2,7,4,11,0,0,0-1,1-2,2-3,4-5,6-7,4-3,8-3,12,0,4,3,6,7,7,12,0,0,0,2,1,3,2-1,5-2,7-4,8-5,13-13,16-21,0,0,0-2,0-3,0-2,2-3,2-5,2-8,4-16,5-24,2-12,3-25,3-37,0,0,0-1,0-2,0,0,0,1,0,2,0,1,0,19-2,29,0,7-2,15-3,22-1,5-3,11-5,16,0,0,0,1,0,2-1,2-2,4-3,6-5,9-11,16-21,2,0,0,0,0,0,1,0,4,0,8,0,13,0,5-1,9-5,12,0,0,0,1,0,2,0,2,1,5,2,7,0,2,0,3,1,5,3,5,6,1,8,15,7,14,16,27,27,38,0,0,2,1,2,2,2,2,5,5,7,7,5,4,1,8,15,11,1,0,2,0,3,0,12-6,23-13,33-22,6-5,13-11,19-17,8-8,15-16,22-24,7-8,14-17,2-26,8-11,14-23,21-34,4-7,8-14,11-21,4-9,9-18,12-27,5-12,1-25,15-38,0,0,0,0,0,0,0,0,0,0,1-1,0,0,0,1,0,1,0,2-1,4-2,7-6,17-13,33-2,49-8,17-17,33-27,49-8,13-16,25-26,37-7,9-15,18-23,26-8,8-16,15-25,22-1,8-2,15-31,2,0,0,0,0-1,0,3,2,5,3,8,5,12,6,25,11,39,14,1,2,21,4,31,4,1,0,2,0,3,0,0,0,0,0,0,0,11,0,21,0,32-1,14-1,28-4,42-7,13-3,27-7,4-12,11-4,23-9,34-14,0,0,0,0,1,0,0,0,0,0,0,0,0,0,0,0,0,1-3,1-6,3-9,4-15,6-3,12-45,16-18,5-36,9-55,12,0,0-2,0-3,0,0,0,0,0-1,0,0,0-2,0-3,0,0,0,0,0,0,0-1,0-2,0-3,0,0,0-1,0-2,0,0,0-2,0-3,0,0,0-1,0-2,0-9,0-17,0-26,0,0,0,0,0,0,0-22,0-43-5-63-14-6-2-11-6-16-8,0,0-2,0-3,0-12,6-25,1-37,14,0,0,0,0,0,0-2,0-5,1-7,2-8,2-16,4-25,6-4,0-8,1-13,1-7,0-13,0-2,0-8,0-16-4-23-8-1,0-2,0-3,0-5,3-1,5-15,6-6,1-12,0-18-2-8-3-15-7-21-12-12-9-24-19-37-28-1-7-2-14-31-2,0,0-1,0-2,0-8-4-15-8-23-11-9-4-18-7-27-1-9-3-18-5-26-7-15-3-3-5-45-6-3,0-7,0-1,0,0,0,0,0-1,0-2,0-4,0-6,0-9,0-17,0-26,0-17,0-34,2-52,5-1,0-3,0-4,0,0,0-1,0-2,0,0,0,0,0,1-1,3,0,7,0,1-1,7,0,14-2,21-2,14-1,28-2,43-2,11,0,22,0,33,1,12,0,24,2,36,5,1,2,21,5,31,8,1,3,2,7,3,12,6,2,11,6,17,8,0,0,0,0,1,0,0,0,1,1,2,1,5,3,9,6,14,8,15,1,29,21,43,31,8,7,17,13,27,18,5,2,1,4,15,4,6,0,11-1,16-3,2,0,4-2,7-3,0,0,0,0,0,0-7-5-12-12-17-19,0,0-1,0-2-1-3,0-6,0-9,0-5-1-8-5-1-9,0,0-1-2-2-2-3-2-7-4-1-6-9-6-16-14-19-25-2-8-2-16,0-24,0,0,0-2,0-2-2,0-3,2-4,3-7,5-15,9-23,1-6,1-11,0-17,0-3,0-7-2-1-3-9-3-17-7-24-12-11-7-21-16-29-26-7-8-14-16-2-24-1-12-18-24-26-37-1-16-19-32-27-48,0,0,0,0,0,0,0,0,0,0,0-1,0,0,1,0,1,0,1,2,2,4,3,5,5,1,11,2,17,3,9,15,19,3,29,44,1,13,2,26,32,37,11,11,22,2,36,27,7,3,13,6,21,7Zm9-71c2,0,4-2,7-3,3,0,5,0,8,0,4,0,8,3,12,3,1,0,3,0,4,0,0,0,0,0,0,0,0,0-2,0-2-1-3,0-6-2-9-2-4,0-8,0-12,0-2,0-4,2-7,3-3,2-6,4-9,7-2,1-2,2,0,4,3-3,6-6,9-9Zm45,114c0,0-1,0-2,0-6,0-12,0-18-2-1,0-2,0-2,1-1,3-3,6-4,9,9,0,18-3,26-7,0,0,0,0,0,0,0,0,0,0,0,0,0,0,0,0,0,0Zm32-31s0,0,0,0c5-8,8-16,11-24,0,0,0-1,0-2-1-3-3-5-4-7,0,0,0,0-1,0-2,0-5,1-7,2,0,5,1,9,2,14,0,5,0,11,0,16,0,0,0,2,0,3,0,0,0,0,0,0,0,0,0,0,0,0Zm-55,5h0v-13c-1,0-3,0-4,0-5,0-1,0-15-1-1,0-2,0-3,0-2,0-3,0-5,1,3,3,6,7,1,9,5,3,1,6,16,5Zm67-25c-3,8-7,16-12,24,0,1-1,2-1,4,0,4-2,7-4,11-2,3-3,6-5,9,0,0,0,0,0,0,0,0,0,0,0,0,5-2,9-5,12-9,8-11,11-24,1-38,0,0,0,0,0,0Zm-78-4s0,0,1,0c4,0,8,0,13,0,1,0,1,0,2-1,1-4,3-8,4-12,0,0,0-2,0-3-8,2-16,0-23-3,2,6,4,11,3,17h0Zm17-74s0,0,0,0c0,0,0,0,0,0-5-4-11-6-17-6-3,0-7,0-1,0-4,0-8,0-12,2-3,0-6,3-7,6,0,2,0,4,0,5,6-2,12-4,18-5,3,0,7-1,1-3,2,0,5-1,7-1,4,0,7,0,11,1Zm-39,76s0,0,0,0c0-3,0-6,0-9,0-6,2-12,5-17,0-1,0-2,0-3-3-4-5-9-4-15,0,0-2,0-2,0-4,6-6,12-7,2,0,6,1,12,3,18,0,2,2,5,3,7,0,0,0,1,1,0Zm41,31c-2,0-3,0-5,0,0,0,0,0,0,0,0,2,0,3,0,5,0,0,0,2,1,3,6,4,13,8,2,1,3,0,6,1,9-1,2-2,4-3,6-5,2-1,2-3,2-5,0,0,0-1,0-2,0-4,0-8-4-11-2-2-5-3-8-5-1,0-2,0-3,0,0,1-2,2-3,3-5,5-11,7-18,7Zm99,25c0,0,0-1-2-2-1-1-19-22-26-34-3-6-6-11-1-17,0,0,0,0,0,0,0,0,0,0,0,0,0,4,0,9,0,13,0,7-3,13-6,18-4,8-1,14-19,17,0,0,0,0-1,1-11,14-23,26-37,36,0,0,0,0,0,0,0,0,0,0,0,0,6,4,13,7,2,8,8,1,16,1,25,0,4,0,7,0,11-1,8-2,16-4,24-6,3,0,6-2,9-3,0,0,0,0,1,0,9-3,19-7,28-1,2,0,4-2,7-3,0,0,0,0-1-1-5-4-11-8-16-12-2-1-4-3-5-5Zm-92-87c0,0,1-1,1-2,1-5,2-9,3-14,0-3,0-3-3-5-4-2-8-4-13-6-3-1-5-2-9-2-2,0-5,0-7,0-6,0-11,3-16,7-2,2-3,5,1,7,5,2,9,4,14,6,2,0,3,1,5,1,5,0,1,0,14,3,2,1,5,2,7,4Zm26,84c-3,0-6,0-8,0-2,0-3,0-5,1-8,5-17,8-26,9-4,0-7,1-11,3-1,1-4,1-5,2,0,0,0,0,0,0,5,7,1,13,16,18,1,1,2,0,3,0,11-9,22-19,31-3,1-2,3-3,4-5Zm-105-55c-2,5-4,1-4,15,0,6,1,13,4,18,5,11,14,18,24,23,0,0,0,0,2,0-1-3-1-6-4-8,0,0,0,0-1-2-3-4-5-9-5-14,0-3,0-7,2-9,0,0,0,0,0,0-5-4-1-7-15-11-2-1-2-2,0-3,0,0,2-1,3-1,2,0,3-1,5-2-3-2-7-4-1-6Zm25-42s0,0,0,0c0,0,0,1-1,2-6,11-12,21-19,32,0,0,0,2,0,2,4,4,7,8,11,11,0,0,0,0,1,0,3,0,6,0,9-1,0,0,0,0,0-1-3-7-5-15-5-22,0-7,0-14,3-21,0,0,0,0,0-1Zm-1-3c-4,0-8,0-12,0-7,2-12,6-14,12-3,8,0,15,5,23,7-12,14-23,21-36Zm12,83c0,2,0,4,0,5,0,2,0,3,0,5,3,5,5,1,8,15,0,0,1,0,2,1,4,0,8,0,12,0,0,0,1,0,2,0,3-3,4-6,5-9,0,0,0-2-1-2-9-3-17-8-25-13,0,0-1,0-2-1Zm-12-101s0,0,0,0c-9,5-17,11-23,19-4,5-7,11-7,18,0,8,2,15,6,21,0,0,0,0,0,1,0-1,1-2,2-3,1-2,1-3,0-4-3-4-5-9-5-14,0-7,2-13,8-17,4-4,1-5,15-5,4,0,7,0,9-4,0,0,0,0,0-1,0,0,0,0,0-1-2-3-3-7-5-1Zm9,65s0,0,0,0c5,0,11,0,16-1,1,0,2,0,3-2,0-5,0-1-3-14,0-2-2-4-4-5-2,0-3-2-5-3,0,0-1-1-2-2-5,6-7,18-6,28Zm75,38s0,0,0,0c3-3,5-7,8-1,0,0,0,0,0,0,0-4,0-8-3-12-3-4-7-6-11-8-3-1-6,0-6,4,0,0,0,0,0,0,0,2-1,4-2,7,9,4,15,9,13,2Zm-64-7c1,3,2,5,4,7,0,1,1,3,3,4,7,3,14,4,21,3,0,0,1,0,2-1,0-2,0-4,1-6-6-3-13-7-19-1,0,0-1,0-2,0-3,0-7,1-1,3Zm-11-24s0,0,1,0c5-4,11-8,18-9,1,0,19,2,27,7,1,0,2,1,4,2,0,0,0-1,0-1,0-5-3-9-6-12-1-1-3-2-6-2-1,0-3,0-5,0-5-1-1-2-15,0-2,0-3,0-4,2-6,4-11,9-15,15Zm32,105c1-3,1-7,1-1,0,0,0,0,0-1-7-4-13-8-21-1-3,0-6,0-9,0,0,2,0,4,0,6,0,0,0,0,0,1,7,5,15,9,23,13,2,0,3,1,5,2Zm3-51c0-5-2-9-4-13-1-3-3-5-6-6-1,0-2,0-3,0,0,0-2,1-3,2-2,0-3,3-2,5,0,5,2,9,5,13,0,1,2,1,3,2,3,0,6,0,9,1,2,0,3,0,3-3,0,0,0,0,0,0Zm38-4c-2-5-3-9-7-13-4-4-8-4-11,0-3,3-5,6-6,1,0,0,0,1,0,1,0,0,2,1,2,1,5,1,1,2,16,2,2,0,4,0,7,0Zm-14,62c0-1,0-3,0-4,0-6,0-11,0-17,0-2,0-5-1-7,0,0,0-1-1-1-2,0-4,0-6,0-1,6-3,11-8,15,7,3,14,7,16,16Zm-6-61c8,7,13,15,17,24,6-5,5-18,3-24-3,0-7,1-1,1-3,0-7,0-1-1Zm-79,58c0-2,0-3,0-5,0-1,0-1-1-2-3-1-6-3-9-4-3-1-6-2-9-3,0,0,0,0-1,0-3,0-5,2-8,2,0,0-1,0-2,0,5,4,1,7,14,11,0,0,0,0,1,0,0,0,0-1,0-2,0-1-1-3-2-4,0,0,0,0,0,0,0,0,1,0,1,0,0,0,1,2,2,3,0,0,0,0,1,0,4-1,7-1,12,0Zm59-1c-5,0-8-3-11-6,0,0,0,0,0,0-3,0-7,0-1,0,0,1,0,2,0,3,0,2-1,5-2,7,0,0,0,2,1,2,6,0,11,2,17,2,0,0,1,0,2,0,1-2,3-4,4-7Zm13-54s0,0,0,0c0-3-2-6-3-1-2-5-4-1-7-14-1-2-3-3-6-4-4,0-8,0-12,1,11,7,2,17,28,27Zm-37,47s0,0,0,0c-4,0-9,0-13,0,0,0-1,0-1,1-1,3-3,5-5,7,0,0,0,0-1,1h0c3,0,7,1,1,2,2,0,5,0,7,0,1,0,2,0,2-1,0-3,1-6,2-9,0,0,0,0,0-1Zm18-24c2,5,7,6,12,8,0-5,2-9,3-14,0,0,0-1,0-1-3-1-5-2-8-3,0,0-1,0-1,0-2,3-3,6-5,9Zm0,41s0,0,0,0c-6,0-12-2-18-3v13c8-1,14-5,19-1Zm39-29c-5-8-1-16-16-24,0,4,0,7,1,11,0,0,0,0,0,0,3,4,5,8,7,12,0,0,0,1,2,1,2,0,4,0,6-1Zm-35,64c-8-2-15-7-23-11,0,3,0,6-1,8,0,1,0,2,1,2,4,0,7,1,11,2,4,0,8,0,12,0Zm0-99s0,0,0,0c2,4,2,7,1,11,0,0,0,0,0,1,2,0,5,1,7,2,0,0,1,0,2,0,0-4,2-7,3-11-5-2-9-3-14-5Zm-39,48c-6,0-12,0-19,1,0,3,0,7,4,7,2,0,3,0,5,0,0,0,2,0,2,0,4-2,5-5,7-9Zm48-14c0,4-2,7-3,11,0,1,0,3,0,4,0,2,3,3,4,2,5-4,7-9,8-14-3,0-5-2-8-3Zm-81,36c-2,1-2,4-3,6,0,6,2,11,5,16,0,0,0,1,1,2,0,0,0-1,0-2,0-4,0-9,2-13,0,0,0-1,0-2-1-3-4-5-6-6Zm8,9c0,1-1,2-1,3,0,3,0,7,0,1,0,4,2,5,5,6,0,0,2,0,2,0,2-1,2-5,1-7-1-3-3-5-4-8,0-1-1-3-2-4Zm19-104c-7,0-13,3-19,6,0,0,0,0,0,1,1,3,3,6,4,9,5-6,9-12,15-16Zm58,43c-1,5-2,1-3,14,3,0,5,2,9,3,0-4,0-8,0-12,0,0,0,0,0,0-2-2-3-3-6-5Zm-61,9s0,0,0,0c-2-4-5-8-7-13,0,2-2,4-4,5-2,0-4,0-6,0,0,3,1,5,5,6,0,0,1,0,2,0,3,0,6,2,9,3Zm44-11c-1,5-2,1-3,15,2,0,4,0,6,0,1,0,2,0,2-2,0-4,0-7-2-1,0-1-2-3-3-3Zm41,36c1,0,2-1,0-2-1-2-2-4-3-6-4-7-9-13-15-18,0,0,0,0-1,0,6,9,12,19,18,28Zm-58,42c6,3,21-4,23-1,0,0-1,0-2,0-2,0-3,0-4,1-1,2-3,3-5,4-4,3-8,4-13,5Zm-35-9c-4,0-8-1-12,0,2,3,3,5,5,7,0,0,0,0,1,0,2,0,4-1,6-2,0-2,0-4,0-6Zm65-7c-1-3-14-16-16-16,0,0,0,2,1,3,0,1,1,2,1,3,0,3,2,4,4,5,3,1,6,3,9,4Zm-69,109c2,6,11,1,17,8-1-2-2-5-6-5-3,0-6-2-1-3,0,0-1,0-2,0Zm3-94c5,3,1,5,14,8q3,2,5-1s0,0,0,0c-6-4-12-6-19-6Zm-44,39s0,0,0,0c-4-4-7-7-11-11,0,0-1,2-2,3,0,0,0,2,0,2,3,3,6,4,1,6,0,0,2,0,3,0Zm2-48c-1,5,1,11,5,14,1,0,2-2,3-3-3-6-6-11-7-11Zm4,1s0,0,0,0c2,3,4,6,5,9,3-1,6-2,8-3-5-2-9-4-13-6Zm36,31c-1,3-2,6-3,1,0,0,0,1,0,1,2,0,5,0,7,0-2-4-3-7-5-11Zm12-43s0,0,0,0c2,2,3,3,5,4,4,2,8,3,11,5,0,0,0,0,1,0,0,0,0,0,0,0-5-4-11-7-17-9Zm-1,3c3-3,4-5,6-9-3,0-6,0-8,2-1,0-2,2,0,3,1,1,2,3,3,4Zm-49,45c0,1,0,2,0,3,0,1,0,2,2,2,3,0,7,1,1,2,1,0,2,0,3,1-4-4-9-7-15-8Zm17,7s0,0,0,0c5,3,9,6,14,1,0-1,0-2,0-2,0-3-1-4-5-5-3,0-6-2-9-3Zm63,6c-4,5-8,1-12,15,5,0,13-1,12-15Zm-24-5c2,4,3,8,5,13,0-3,1-6,2-9,0,0,0-1,0-1-2,0-4-2-6-3Zm16-24s0,0,0,0c0,3-1,6-2,1,0,0,0,0,0,0,2,1,3,2,5,4,0-5-1-1-2-14Zm4,29c1,0,3,0,4,0,1,0,2,0,1-2-1-3-3-6-4-8,0,0,0,0-1,0v1Zm-91,16c3,3,8,3,12,4,0-2-1-3-2-4,0,0-1-1-2-1-3,0-6,0-8,1Zm15,39c0,0,0-2,0-3,0-3,0-6-3-7,0,0-2-1-3-2,0,0-1,0-2,0,2,4,5,8,7,12,0,0,0,0,0,0Zm24-103c-6-2-13,0-18,5,6-3,12-5,18-5Zm37,69s0,0,0,0c0,0-1,0-2,0-1,2-3,5-4,7,1,0,3,0,4,1,0-3,1-6,2-9Zm-2-5c-3,0-6-1-1-2,2,2,4,4,6,4,2,0,3,0,3-2Zm-51,18s0,0,0,0c-3-3-5-5-8-8,0,0,0,0,0,0,0,2,0,3,0,5,0,0,0,0,0,0,2,0,4,2,7,3Zm42-73c0-4-9-7-13-6,4,2,9,4,13,6Zm-28,116s0,0,0,0c-3,0-7,0-1,0,0,1,1,2,2,3,0,0,0,0,1,0,2,0,5-2,7-2Zm-13-96c-1,1-2,2-3,3,2,2,5,4,7,5,0,0,0,0,0,0-1-3-3-5-4-8Zm27-42s0,0,0,0c-4-2-11-3-14,0,5,0,1,0,14,1Zm-36,1c-2,0-3,1-5,2,2,2,4,3,5,4v-6Zm74,2c-3,1-6,3-9,4,6,0,7,0,9-4Zm-79-93c-1,0-2,0-3,1,0,1-1,3-2,4,0,0,0,2,0,2,0,0,0,0,0,0,1-3,3-5,4-8Zm5,21c3,2,3,2,4,0-1-1-2-2-3-4,0,0,0,2,0,3Zm-5-23c2,1,3,0,3,0,0,0,0-2,0-3,0,0,0,0,0,0,0,1-1,2-2,3Zm99,36c0,2,2,3,3,5,0,0,0,0,0,0,0-2-1-4-2-5,0,0,0,0-1,1Zm-5-9s0,0,0,0c1,0,2-1,4-2-1,0-2,0-3-1,0,1,0,2-1,3Zm-49,3c1,0,3,0,4,1,0,0,0,0,0,0-1,0-3,0-4,0Zm47-3s0,0,0,0c0-1,0-2,1-4,0,0,0,0,0,0,0,1,0,2-1,4Zm-5-25s0,0,0,0h0s0,0,0,0c0,0,0,0,0,0Z"/>
    </g>
  </g>
</svg>